<svg width="15" height="11" viewBox="0 0 15 11" fill="none" xmlns="http://www.w3.org/2000/svg">
<path d="M1.00238 6.00237H0.00236613L0.00238044 9.00238C0.00238044 10.1024 -0.0976206 10.0024 1.00238 10.0024H6.00237V9H1L1.00238 6.00237ZM1.00238 1.00237L6.00238 1.00237L6.00237 0.00237L1.00238 0.00236666C-0.0976206 0.00236666 0.00236601 -0.0976301 0.00236601 1.00237L0.00236601 4.00237L1.00238 4.00237L1.00238 1.00237ZM13.0024 0.00237012L8.00237 0.00237012V1.00237L13.0024 1.00237V4.00237H14.0024V1.00237C14.0024 -0.0976313 14.1024 0.00237012 13.0024 0.00237012ZM13.0024 9H8.00237V10.0024H13.0024C14.1024 10.0024 14 10.1 14 9L14.0024 6.00237L13 6L13.0024 9Z" fill="#F5F5F5"/>
<path d="M8.00237 5C8.00237 5.5 7.50237 6 7.00237 6C6.50237 6 6.00237 5.5 6.00237 5C6.00237 4.5 6.50237 4 7.00237 4C7.50237 4 8.00237 4.5 8.00237 5Z" fill="#F5F5F5"/>
</svg>
