<svg width="156" height="28" viewBox="0 0 156 28" fill="none" xmlns="http://www.w3.org/2000/svg">
<path d="M0 22.7201H3.87873V15.779H8.262C13.1183 15.779 17.0916 13.2493 17.0916 8.40597C17.0916 3.99449 13.8436 1.12549 8.70348 1.12549H0V22.7201ZM3.87873 12.3547V4.58064H8.38814C11.2893 4.58064 13.1498 5.90716 13.1498 8.43682C13.1498 10.7505 11.3208 12.3547 8.38814 12.3547H3.87873Z" fill="#282828"/>
<path d="M20.6225 22.7201H24.4381V13.527C24.4381 10.9973 25.9833 9.4857 28.1907 9.4857C30.4612 9.4857 31.7541 10.9356 31.7541 13.4653V22.7201H35.5698V12.3547C35.5698 8.56021 33.3939 6.09226 29.6413 6.09226C27.0555 6.09226 25.5103 7.41878 24.4381 8.96126V0.200012H20.6225V22.7201Z" fill="#282828"/>
<path d="M48.0926 23.0903C53.2327 23.0903 57.0168 19.2341 57.0168 14.6067C57.0168 9.88674 53.2643 6.09226 48.1557 6.09226C43.0471 6.09226 39.263 9.94844 39.263 14.6067C39.263 19.2958 43.0156 23.0903 48.0926 23.0903ZM48.1557 19.8511C45.1915 19.8511 43.0787 17.4449 43.0787 14.6067C43.0787 11.7069 45.0338 9.3623 48.0926 9.3623C51.0884 9.3623 53.2012 11.7377 53.2012 14.6067C53.2012 17.4757 51.2461 19.8511 48.1557 19.8511Z" fill="#282828"/>
<path d="M66.4843 22.9978C67.9033 22.9978 68.9755 22.6893 69.9215 22.1648V19.1107C69.1647 19.4809 68.4079 19.666 67.5565 19.666C66.2635 19.666 65.5067 19.0799 65.5067 17.63V9.63994H69.9846V6.4316H65.5067V1.95843H61.6911V6.4316H59.5783V9.63994H61.6911V18.2161C61.6911 21.7946 63.6777 22.9978 66.4843 22.9978Z" fill="#282828"/>
<path d="M81.2899 23.0903C86.43 23.0903 90.2141 19.2341 90.2141 14.6067C90.2141 9.88674 86.4616 6.09226 81.353 6.09226C76.2444 6.09226 72.4603 9.94844 72.4603 14.6067C72.4603 19.2958 76.2129 23.0903 81.2899 23.0903ZM81.353 19.8511C78.3888 19.8511 76.276 17.4449 76.276 14.6067C76.276 11.7069 78.2311 9.3623 81.2899 9.3623C84.2857 9.3623 86.3985 11.7377 86.3985 14.6067C86.3985 17.4757 84.4434 19.8511 81.353 19.8511Z" fill="#282828"/>
<path d="M99.9654 22.7201H103.876V4.64233H110.876V1.12549H92.9648V4.64233H99.9654V22.7201Z" fill="#282828"/>
<path d="M114.026 3.9328H118.126V0.385108H114.026V3.9328ZM114.184 22.7201H117.999V6.4316H114.184V22.7201Z" fill="#282828"/>
<path d="M122.986 27.656H126.802V20.1905C127.968 21.7021 129.703 23.0595 132.446 23.0595C136.42 23.0595 140.204 20.0054 140.204 14.6067C140.204 9.14635 136.388 6.09226 132.446 6.09226C129.766 6.09226 128.031 7.44963 126.802 9.14635V6.4316H122.986V27.656ZM131.563 19.8203C128.978 19.8203 126.707 17.7533 126.707 14.6067C126.707 11.4292 128.978 9.33145 131.563 9.33145C134.149 9.33145 136.325 11.3984 136.325 14.545C136.325 17.8151 134.181 19.8203 131.563 19.8203Z" fill="#282828"/>
<path d="M149.819 23.0286C153.288 23.0286 156 21.3319 156 17.9076C156 14.9152 153.257 13.8355 150.828 13.0951C150.734 13.0642 150.608 13.0334 150.513 13.0025C148.684 12.4164 147.076 11.9228 147.076 10.8122C147.076 9.79419 147.927 9.1155 149.409 9.1155C150.797 9.1155 152.5 9.70164 154.108 10.658L155.622 8.00492C153.856 6.86349 151.585 6.15396 149.504 6.15396C146.193 6.15396 143.575 8.03577 143.575 11.1207C143.575 14.2982 146.319 15.2854 148.779 15.9949C148.873 16.0258 148.968 16.0566 149.062 16.0875C150.891 16.6119 152.5 17.0438 152.5 18.2469C152.5 19.3884 151.554 20.0671 149.914 20.0671C148.211 20.0671 146.256 19.3884 144.458 18.0618L142.756 20.5915C144.837 22.1957 147.454 23.0286 149.819 23.0286Z" fill="#282828"/>
<ellipse cx="81.2668" cy="14.8568" rx="5.59344" ry="5.47196" fill="#282828"/>
<ellipse cx="81.267" cy="14.8568" rx="5.08495" ry="4.97451" fill="#F5F5F5"/>
<path d="M90.3158 14.8567C90.3158 19.7451 86.2649 23.7081 81.2679 23.7081C76.2708 23.7081 72.22 19.7451 72.22 14.8567C72.22 9.96816 76.2708 6.00525 81.2679 6.00525C86.2649 6.00525 90.3158 9.96816 90.3158 14.8567ZM74.9343 14.8567C74.9343 18.2786 77.77 21.0526 81.2679 21.0526C84.7658 21.0526 87.6014 18.2786 87.6014 14.8567C87.6014 11.4347 84.7658 8.66067 81.2679 8.66067C77.77 8.66067 74.9343 11.4347 74.9343 14.8567Z" fill="#282828"/>
<path d="M89.2758 14.8568C89.2758 19.1839 85.6901 22.6917 81.267 22.6917C76.8438 22.6917 73.2582 19.1839 73.2582 14.8568C73.2582 10.5298 76.8438 7.02197 81.267 7.02197C85.6901 7.02197 89.2758 10.5298 89.2758 14.8568ZM75.6608 14.8568C75.6608 17.8858 78.1708 20.3412 81.267 20.3412C84.3632 20.3412 86.8731 17.8858 86.8731 14.8568C86.8731 11.8279 84.3632 9.37243 81.267 9.37243C78.1708 9.37243 75.6608 11.8279 75.6608 14.8568Z" fill="#F5F5F5"/>
</svg>
