<svg width="24" height="96" viewBox="0 0 24 96" fill="none" xmlns="http://www.w3.org/2000/svg">
<path d="M11 0H13V36C13 36.5523 12.5523 37 12 37C11.4477 37 11 36.5523 11 36V0Z" fill="#167BD9"/>
<path d="M11 60C11 59.4477 11.4477 59 12 59C12.5523 59 13 59.4477 13 60V96H11V60Z" fill="#DFDFDF"/>
<path d="M9.50001 51.475L6.02501 48L4.84167 49.175L9.50001 53.8333L19.5 43.8333L18.325 42.6583L9.50001 51.475Z" fill="#DFDFDF"/>
<path d="M24 48C24 54.6274 18.6274 60 12 60C5.37258 60 0 54.6274 0 48C0 41.3726 5.37258 36 12 36C18.6274 36 24 41.3726 24 48ZM2.00116 48C2.00116 53.5222 6.47779 57.9988 12 57.9988C17.5222 57.9988 21.9988 53.5222 21.9988 48C21.9988 42.4778 17.5222 38.0012 12 38.0012C6.47779 38.0012 2.00116 42.4778 2.00116 48Z" fill="#167BD9"/>
</svg>
