<svg width="31" height="16" viewBox="0 0 31 16" fill="none" xmlns="http://www.w3.org/2000/svg">
<path d="M0 1C0 0.447715 0.447715 0 1 0L30 0C30.5523 0 31 0.447715 31 1V15C31 15.5523 30.5523 16 30 16L1 16C0.447716 16 0 15.5523 0 15L0 1Z" fill="#F5F5F5"/>
<path d="M6.01797 8.87695H4.61758L4.61758 12H2.85977L2.85977 3.46875L6.02969 3.46875C7.0375 3.46875 7.81484 3.69336 8.36172 4.14258C8.90859 4.5918 9.18203 5.22656 9.18203 6.04688C9.18203 6.62891 9.05508 7.11523 8.80117 7.50586C8.55117 7.89258 8.17031 8.20117 7.65859 8.43164L9.5043 11.918V12H7.61758L6.01797 8.87695ZM4.61758 7.45312H6.03555C6.47695 7.45312 6.81875 7.3418 7.06094 7.11914C7.30313 6.89258 7.42422 6.58203 7.42422 6.1875C7.42422 5.78516 7.30898 5.46875 7.07852 5.23828C6.85195 5.00781 6.50234 4.89258 6.02969 4.89258H4.61758V7.45312ZM15.7402 10.2422H12.6582L12.0723 12H10.2031L13.3789 3.46875H15.0078L18.2012 12L16.332 12L15.7402 10.2422ZM13.1328 8.81836H15.2656L14.1934 5.625L13.1328 8.81836ZM25.8082 9.53906L26.9566 3.46875L28.7086 3.46875L26.816 12H25.0465L23.6578 6.29297L22.2691 12H20.4996L18.607 3.46875L20.359 3.46875L21.5133 9.52734L22.9195 3.46875H24.4078L25.8082 9.53906Z" fill="#282828"/>
</svg>
