<svg width="12" height="11" viewBox="0 0 12 11" fill="none" xmlns="http://www.w3.org/2000/svg">
<path fill-rule="evenodd" clip-rule="evenodd" d="M2.85489 0.146894C2.90146 0.193339 2.9384 0.248515 2.96361 0.30926C2.98881 0.370005 3.00179 0.435127 3.00179 0.500894C3.00179 0.566661 2.98881 0.631782 2.96361 0.692528C2.9384 0.753273 2.90146 0.808448 2.85489 0.854894L1.70789 2.00089L7.00089 2.00089C8.19437 2.00089 9.33896 2.475 10.1829 3.31891C11.0268 4.16283 11.5009 5.30742 11.5009 6.50089C11.5009 7.69437 11.0268 8.83896 10.1829 9.68287C9.33896 10.5268 8.19437 11.0009 7.00089 11.0009H3.00089C2.86829 11.0009 2.74111 10.9482 2.64734 10.8544C2.55357 10.7607 2.50089 10.6335 2.50089 10.5009C2.50089 10.3683 2.55357 10.2411 2.64734 10.1473C2.74111 10.0536 2.86829 10.0009 3.00089 10.0009H7.00089C7.92915 10.0009 8.81939 9.63214 9.47577 8.97577C10.1321 8.31939 10.5009 7.42915 10.5009 6.50089C10.5009 5.57264 10.1321 4.6824 9.47577 4.02602C8.81939 3.36964 7.92915 3.00089 7.00089 3.00089L1.70789 3.00089L2.85489 4.14689C2.90138 4.19338 2.93826 4.24857 2.96342 4.30931C2.98858 4.37005 3.00153 4.43515 3.00153 4.50089C3.00153 4.56664 2.98858 4.63174 2.96342 4.69248C2.93826 4.75322 2.90138 4.80841 2.85489 4.85489C2.80841 4.90138 2.75322 4.93826 2.69248 4.96342C2.63174 4.98858 2.56664 5.00153 2.50089 5.00153C2.43515 5.00153 2.37005 4.98858 2.30931 4.96342C2.24857 4.93826 2.19338 4.90138 2.14689 4.85489L0.146894 2.85489C0.100331 2.80845 0.0633878 2.75327 0.0381813 2.69253C0.0129749 2.63178 0 2.56666 0 2.50089C0 2.43513 0.0129749 2.37001 0.0381813 2.30926C0.0633878 2.24851 0.100331 2.19334 0.146894 2.14689L2.14689 0.146894C2.19334 0.100331 2.24851 0.0633878 2.30926 0.0381813C2.37001 0.0129749 2.43513 0 2.50089 0C2.56666 0 2.63178 0.0129749 2.69253 0.0381813C2.75327 0.0633878 2.80845 0.100331 2.85489 0.146894Z" fill="#F5F5F5"/>
</svg>
