<svg width="20" height="20" viewBox="0 0 20 20" fill="none" xmlns="http://www.w3.org/2000/svg">
<path fill-rule="evenodd" clip-rule="evenodd" d="M2 4C2 2.89543 2.89543 2 4 2H16C17.1046 2 18 2.89543 18 4V16C18 17.1046 17.1046 18 16 18V17C16.5523 17 17 16.5523 17 16V4C17 3.44772 16.5523 3 16 3H4C3.44772 3 3 3.44772 3 4L2 4Z" fill="#282828"/>
<path fill-rule="evenodd" clip-rule="evenodd" d="M4 2C4 0.895431 4.89543 0 6 0H18C19.1046 0 20 0.895431 20 2V14C20 15.1046 19.1046 16 18 16V15C18.5523 15 19 14.5523 19 14V2C19 1.44772 18.5523 1 18 1H6C5.44772 1 5 1.44772 5 2L4 2Z" fill="#282828"/>
<path d="M6.0001 14.78L3.2201 12L2.27344 12.94L6.0001 16.6667L14.0001 8.66668L13.0601 7.72668L6.0001 14.78Z" fill="#282828"/>
<path fill-rule="evenodd" clip-rule="evenodd" d="M2 4C0.895431 4 0 4.89543 0 6V18C0 19.1046 0.895431 20 2 20H14C15.1046 20 16 19.1046 16 18V6C16 4.89543 15.1046 4 14 4H2ZM2 5C1.44772 5 1 5.44772 1 6V18C1 18.5523 1.44772 19 2 19H14C14.5523 19 15 18.5523 15 18V6C15 5.44772 14.5523 5 14 5H2Z" fill="#282828"/>
</svg>
