<svg width="24" height="19" viewBox="0 0 24 19" fill="none" xmlns="http://www.w3.org/2000/svg">
<path d="M12.4413 17.3923L17.6913 8.29904C18.1038 7.58457 17.8568 6.6625 17.1423 6.25L8.04904 1C7.33457 0.5875 6.4125 0.834567 6 1.54904L0.75 10.6423C0.3375 11.3568 0.584567 12.2788 1.29904 12.6913L10.3923 17.9413C11.1068 18.3538 12.0288 18.1068 12.4413 17.3923ZM6.38485 9.13245L6.8799 12.025L10.8445 10.4082L11.5173 15.9928L2.42404 10.7428L6.38485 9.13245Z" fill="#1D3557" fill-opacity="0.7"/>
<path d="M16.5 15.4C17.8255 15.4 18.9 14.3255 18.9 13C18.9 11.6745 17.8255 10.6 16.5 10.6C15.1745 10.6 14.1 11.6745 14.1 13C14.1 14.3255 15.1745 15.4 16.5 15.4Z" fill="#1D3557"/>
<path d="M14.25 5.5L12.8775 7H10.5C9.675 7 9 7.675 9 8.5V17.5C9 18.325 9.675 19 10.5 19H22.5C23.325 19 24 18.325 24 17.5V8.5C24 7.675 23.325 7 22.5 7H20.1225L18.75 5.5H14.25ZM16.5 16.75C14.43 16.75 12.75 15.07 12.75 13C12.75 10.93 14.43 9.25 16.5 9.25C18.57 9.25 20.25 10.93 20.25 13C20.25 15.07 18.57 16.75 16.5 16.75Z" fill="#1D3557"/>
</svg>
